<?xml version="1.0" encoding="UTF-8" standalone="no"?>
<!-- Created with Inkscape (http://www.inkscape.org/) -->

<svg
   width="15.763927mm"
   height="15.763927mm"
   viewBox="0 0 15.763927 15.763927"
   version="1.1"
   id="svg3025"
   inkscape:version="1.2.2 (b0a8486541, 2022-12-01)"
   sodipodi:docname="generic-project-icon.svg"
   xmlns:inkscape="http://www.inkscape.org/namespaces/inkscape"
   xmlns:sodipodi="http://sodipodi.sourceforge.net/DTD/sodipodi-0.dtd"
   xmlns="http://www.w3.org/2000/svg"
   xmlns:svg="http://www.w3.org/2000/svg">
  <sodipodi:namedview
     id="namedview3027"
     pagecolor="#ffffff"
     bordercolor="#000000"
     borderopacity="0.25"
     inkscape:showpageshadow="2"
     inkscape:pageopacity="0.0"
     inkscape:pagecheckerboard="0"
     inkscape:deskcolor="#d1d1d1"
     inkscape:document-units="mm"
     showgrid="false"
     inkscape:zoom="0.78395062"
     inkscape:cx="422.22047"
     inkscape:cy="320.17323"
     inkscape:window-width="1920"
     inkscape:window-height="1171"
     inkscape:window-x="1920"
     inkscape:window-y="0"
     inkscape:window-maximized="1"
     inkscape:current-layer="layer1" />
  <defs
     id="defs3022" />
  <g
     inkscape:label="Layer 1"
     inkscape:groupmode="layer"
     id="layer1"
     transform="translate(6.8694638,-63.668032)">
    <g
       id="g2767"
       transform="translate(29.246859,209.70195)">
      <rect
         style="fill:#207dda;fill-opacity:1;stroke:#2f3b52;stroke-width:0.159083"
         id="rect2731"
         width="15.604844"
         height="15.604844"
         x="-36.036781"
         y="-145.95438"
         rx="1.4142705"
         ry="1.4142705" />
      <path
         style="fill:#ffffff;stroke-width:0.0350095"
         d="m -32.416586,-132.65844 c -0.05809,-0.0287 -0.126734,-0.0859 -0.152536,-0.12726 -0.0258,-0.0413 -0.361782,-0.75401 -0.746623,-1.58376 -0.751565,-1.62044 -0.780739,-1.70719 -0.638294,-1.89803 0.08283,-0.11096 1.335022,-0.70971 1.489109,-0.71204 0.127577,-0.002 0.316111,0.13436 0.399034,0.28845 0.03851,0.0716 0.07843,0.13015 0.08872,0.1302 0.01029,4e-5 0.20687,-0.1563 0.436855,-0.34744 0.490559,-0.40772 0.689133,-0.53415 1.038142,-0.66099 0.2302,-0.0837 0.305705,-0.0934 0.729409,-0.0938 0.521995,-5.3e-4 0.781652,0.0597 1.142072,0.265 l 0.179309,0.10212 h 0.855988 c 0.691583,0 0.887454,0.0107 1.019816,0.0558 l 0.163829,0.0558 0.971466,-0.81305 c 1.057483,-0.88505 1.253865,-1.01066 1.696976,-1.0854 0.182705,-0.0308 0.308683,-0.0322 0.471668,-0.005 0.394567,0.0654 0.570803,0.24455 0.570803,0.5803 0,0.15127 -0.04901,0.23422 -0.84493,1.4301 -0.798428,1.19964 -0.867314,1.29169 -1.251592,1.67254 -0.223663,0.22166 -0.524817,0.48161 -0.669232,0.57766 -0.565251,0.37593 -1.209333,0.64307 -1.855505,0.76959 -0.317817,0.0622 -1.418931,0.11838 -2.380649,0.12141 -0.785943,0.002 -1.061017,0.0297 -1.038308,0.10291 0.0096,0.0308 0.03251,0.10443 0.05103,0.16368 0.04154,0.13294 -0.02606,0.35425 -0.13282,0.43477 -0.125117,0.0944 -1.324144,0.63037 -1.408271,0.62953 -0.04391,-4.4e-4 -0.127369,-0.0243 -0.185462,-0.0529 z m 0.840824,-0.46741 c 0.422635,-0.19407 0.609198,-0.29802 0.643582,-0.35859 0.04543,-0.08 0.0047,-0.18029 -0.660689,-1.62458 -0.39001,-0.84661 -0.724876,-1.55898 -0.744145,-1.58305 -0.06442,-0.0805 -0.184776,-0.0454 -0.763856,0.22234 -0.60446,0.27951 -0.697999,0.33765 -0.697999,0.4339 0,0.0601 1.327753,2.9636 1.420932,3.10729 0.02849,0.0439 0.08556,0.0782 0.129048,0.0774 0.04288,-7.9e-4 0.345788,-0.12438 0.673127,-0.27469 z m -1.432076,-2.26308 c -0.28058,-0.14632 -0.326927,-0.50805 -0.09372,-0.73147 0.208364,-0.19963 0.570019,-0.13744 0.70912,0.12193 0.07933,0.14792 0.08071,0.24957 0.0055,0.40804 -0.108379,0.22839 -0.392524,0.32061 -0.620907,0.2015 z m 0.37028,-0.24953 c 0.143979,-0.1303 0.03707,-0.36217 -0.166979,-0.36217 -0.118967,0 -0.224121,0.0986 -0.224121,0.21006 0,0.0299 0.02453,0.0894 0.0545,0.13224 0.06613,0.0944 0.242718,0.10484 0.336601,0.0199 z m 3.372425,1.45765 c 0.750956,-0.0195 1.491407,-0.0517 1.645449,-0.0716 1.116371,-0.14399 2.206194,-0.73602 2.922276,-1.58748 0.131049,-0.15582 0.581818,-0.80321 1.001708,-1.43863 0.807735,-1.22235 0.841829,-1.29317 0.698717,-1.4513 -0.203341,-0.22469 -0.882701,-0.17127 -1.296795,0.10198 -0.07702,0.0508 -0.536503,0.42451 -1.02107,0.83043 l -0.881031,0.73802 0.137678,0.13444 c 0.152846,0.14925 0.276586,0.376 0.276387,0.50646 -7.1e-5,0.0469 -0.03193,0.13738 -0.07079,0.20112 -0.131284,0.21533 -0.157719,0.21847 -1.754331,0.20833 -1.28133,-0.008 -1.44447,-0.0154 -1.476166,-0.0657 -0.0196,-0.0311 -0.02575,-0.0823 -0.01366,-0.11378 0.01986,-0.0518 0.162581,-0.0573 1.481968,-0.0573 1.309407,0 1.466593,-0.006 1.524013,-0.0579 0.03521,-0.0319 0.06402,-0.0881 0.06402,-0.12497 0,-0.10281 -0.188851,-0.35417 -0.338554,-0.45063 -0.287684,-0.18535 -0.290353,-0.18577 -1.25438,-0.19771 l -0.910249,-0.0113 -0.287918,-0.14215 c -0.203896,-0.10066 -0.381686,-0.15795 -0.609225,-0.19632 -0.28997,-0.0489 -0.353634,-0.0489 -0.652739,-1e-5 -0.459066,0.075 -0.727296,0.21702 -1.303394,0.69001 -0.259947,0.21343 -0.477167,0.40119 -0.482713,0.41726 -0.0055,0.0161 0.173864,0.42915 0.398688,0.91796 0.224824,0.48881 0.445784,0.97146 0.491023,1.07255 0.07815,0.17464 0.08882,0.1838 0.213979,0.18368 0.07245,-7e-5 0.746144,-0.0161 1.497099,-0.0356 z m -0.108997,-3.96977 c -0.136969,-0.0643 -0.259452,-0.13373 -0.272185,-0.15434 -0.01273,-0.0206 0.0025,-0.15046 0.03397,-0.28857 l 0.05711,-0.25112 -0.233368,-0.23518 -0.233368,-0.23517 -0.250893,0.0474 c -0.13799,0.0261 -0.26864,0.0406 -0.290334,0.0323 -0.03938,-0.0151 -0.260404,-0.52831 -0.260048,-0.6038 1.05e-4,-0.0219 0.102592,-0.10406 0.227751,-0.18254 l 0.227562,-0.14268 v -0.27848 c 0,-0.15316 0.0087,-0.30104 0.01924,-0.32861 0.01285,-0.0335 -0.05687,-0.0997 -0.210057,-0.19953 -0.150396,-0.098 -0.229296,-0.17244 -0.229296,-0.21636 0,-0.0859 0.166369,-0.4871 0.2289,-0.55201 0.04113,-0.0427 0.08362,-0.0417 0.307419,0.007 l 0.25969,0.0571 0.235188,-0.23508 0.235189,-0.23509 -0.03803,-0.18964 c -0.07331,-0.36557 -0.0731,-0.36601 0.241805,-0.49295 0.15391,-0.062 0.303097,-0.10387 0.33153,-0.093 0.02843,0.0109 0.111205,0.11505 0.183942,0.23141 l 0.132246,0.21156 h 0.337588 0.337589 l 0.135139,-0.20943 c 0.07433,-0.11519 0.154577,-0.217 0.178332,-0.22624 0.05484,-0.0213 0.539079,0.18025 0.590673,0.24592 0.02848,0.0362 0.02561,0.11634 -0.01085,0.3033 l -0.04956,0.25405 0.230428,0.23894 0.230428,0.23895 0.250075,-0.0569 c 0.20511,-0.0466 0.258211,-0.0487 0.295332,-0.0114 0.07083,0.0712 0.257422,0.54966 0.236063,0.60532 -0.01055,0.0275 -0.116198,0.10672 -0.234788,0.17609 l -0.215617,0.12614 0.0015,0.3358 0.0015,0.3358 0.202076,0.13763 c 0.111141,0.0757 0.210954,0.16077 0.221806,0.18905 0.01873,0.0488 -0.137908,0.47103 -0.209268,0.56408 -0.04323,0.0564 -0.172575,0.0549 -0.395543,-0.005 l -0.177998,-0.0474 -0.236438,0.22957 -0.236438,0.22958 0.04449,0.27396 c 0.02743,0.16892 0.03197,0.28548 0.01183,0.30399 -0.05194,0.0478 -0.492814,0.21384 -0.567652,0.21384 -0.04491,0 -0.11601,-0.0744 -0.209827,-0.21942 l -0.141901,-0.21942 -0.334487,-0.004 -0.334485,-0.004 -0.145267,0.22297 c -0.08244,0.12653 -0.169985,0.22242 -0.202421,0.2217 -0.03143,-6.6e-4 -0.169221,-0.0539 -0.30619,-0.11813 z m 0.373627,-0.33894 c 0.17269,-0.26911 0.173959,-0.26985 0.406347,-0.23759 0.112344,0.0156 0.308223,0.019 0.435287,0.008 l 0.231023,-0.0209 0.130359,0.21459 c 0.0717,0.11802 0.147792,0.21459 0.1691,0.21459 0.107731,0 0.270468,-0.0879 0.256294,-0.13836 -0.0084,-0.0298 -0.03295,-0.14377 -0.05465,-0.25326 l -0.03944,-0.19907 0.323914,-0.32053 0.323913,-0.32054 0.206792,0.0407 c 0.113737,0.0224 0.228039,0.0488 0.254009,0.0588 0.02993,0.0115 0.06708,-0.0294 0.101482,-0.11177 0.02985,-0.0714 0.05413,-0.13977 0.05396,-0.15186 -1.32e-4,-0.0121 -0.0921,-0.0811 -0.204293,-0.15339 l -0.203987,-0.13141 0.0047,-0.46308 0.0047,-0.46308 0.214505,-0.13413 c 0.212801,-0.13307 0.214209,-0.13502 0.177295,-0.24574 -0.05775,-0.17323 -0.07449,-0.17973 -0.336052,-0.13038 l -0.240712,0.0454 -0.323819,-0.32382 -0.323818,-0.32381 0.05573,-0.22185 c 0.03065,-0.12201 0.05573,-0.23538 0.05573,-0.25193 0,-0.0255 -0.217279,-0.14808 -0.262456,-0.14808 -0.0083,0 -0.0776,0.0922 -0.154104,0.20483 l -0.139093,0.20482 -0.463693,-0.003 -0.463691,-0.003 -0.135441,-0.21602 -0.135441,-0.21601 -0.141814,0.0557 c -0.1365,0.0536 -0.14099,0.0604 -0.119849,0.18031 0.07519,0.42653 0.0736,0.44001 -0.06148,0.5235 -0.06874,0.0425 -0.209787,0.17328 -0.313436,0.29067 l -0.188456,0.21343 -0.256495,-0.0579 c -0.141073,-0.0319 -0.260219,-0.0539 -0.26477,-0.0489 -0.0046,0.005 -0.03403,0.0712 -0.06551,0.14709 -0.04586,0.11061 -0.04825,0.1431 -0.01201,0.16337 0.02487,0.0139 0.123805,0.0778 0.219854,0.14202 0.140807,0.0941 0.174211,0.13535 0.172447,0.21298 -0.0012,0.053 -0.0052,0.2578 -0.0087,0.45523 l -0.0066,0.35894 -0.210056,0.13131 c -0.115533,0.0722 -0.210059,0.14508 -0.210059,0.16192 0,0.0168 0.02266,0.0848 0.05036,0.15114 l 0.05036,0.12052 0.269733,-0.0549 0.269734,-0.0549 0.07301,0.10499 c 0.04016,0.0577 0.175111,0.2034 0.299899,0.32368 l 0.226886,0.21871 -0.05455,0.26104 -0.05455,0.26105 0.125995,0.0524 c 0.0693,0.0288 0.136166,0.0532 0.1486,0.0541 0.01244,9e-4 0.07408,-0.0784 0.136993,-0.17645 z m 0.254358,-0.81535 c -0.323181,-0.10557 -0.583597,-0.34521 -0.741817,-0.68265 -0.07706,-0.16434 -0.09226,-0.2459 -0.09226,-0.49507 0,-0.2665 0.01227,-0.32325 0.115068,-0.53205 0.127562,-0.25912 0.332419,-0.46295 0.595054,-0.59208 0.136953,-0.0673 0.221846,-0.0813 0.497708,-0.0821 0.287709,-7.8e-4 0.359274,0.0116 0.530324,0.0918 0.240911,0.11295 0.449992,0.31572 0.580033,0.56253 0.08869,0.16833 0.09747,0.21812 0.09747,0.5526 0,0.33056 -0.0094,0.38539 -0.09324,0.54424 -0.126832,0.24029 -0.35784,0.46394 -0.589445,0.57067 -0.23309,0.10742 -0.668107,0.13745 -0.8989,0.0621 z m 0.793871,-0.27142 c 0.203567,-0.089 0.368429,-0.24891 0.482598,-0.46794 0.131008,-0.25134 0.130275,-0.62467 -0.0017,-0.88007 -0.327799,-0.63422 -1.183248,-0.72785 -1.651541,-0.18075 -0.47918,0.55981 -0.159694,1.452 0.575507,1.60714 0.168072,0.0355 0.406772,0.004 0.595161,-0.0784 z"
         id="path1795" />
    </g>
  </g>
</svg>
